<svg width="16" height="16" viewBox="0 0 16 16" fill="none" xmlns="http://www.w3.org/2000/svg">
<path fill-rule="evenodd" clip-rule="evenodd" d="M8 1.33333C4.3181 1.33333 1.33333 4.3181 1.33333 8C1.33333 11.6819 4.3181 14.6667 8 14.6667C11.6819 14.6667 14.6667 11.6819 14.6667 8C14.6667 6.23189 13.9643 4.5362 12.714 3.28596C11.4638 2.03571 9.76811 1.33333 8 1.33333ZM8.66666 10.3333C8.66666 10.5174 8.51742 10.6667 8.33333 10.6667H7.66666C7.48257 10.6667 7.33333 10.5174 7.33333 10.3333V8.33333C7.33333 8.14924 7.48257 8 7.66666 8H8.33333C8.51742 8 8.66666 8.14924 8.66666 8.33333V10.3333ZM8.33333 6.66667C8.51742 6.66667 8.66666 6.51743 8.66666 6.33333V5.66667C8.66666 5.48257 8.51742 5.33333 8.33333 5.33333H7.66666C7.48257 5.33333 7.33333 5.48257 7.33333 5.66667V6.33333C7.33333 6.51743 7.48257 6.66667 7.66666 6.66667H8.33333Z" fill="#F7CB46"/>
</svg>
